<svg xmlns="http://www.w3.org/2000/svg" width="48" height="48" viewBox="0 0 48 48"><g transform="translate(0 0.001)"><path d="M44.308,45.414H2.078A2.076,2.076,0,0,1,0,43.345V21.391a2.076,2.076,0,0,1,2.078-2.069H7.866a2.076,2.076,0,0,1,2.078,2.069v9.088a.069.069,0,0,0,.069.069H14.34a.07.07,0,0,0,.069-.069V10.7a2.076,2.076,0,0,1,2.079-2.069h7.249A2.076,2.076,0,0,1,25.817,10.7V20.52c0,.035,0,.052.051.066s.06,0,.079-.031l.064-.109L46.286.292a1.007,1.007,0,0,1,1.42,0,1,1,0,0,1,0,1.414L27.6,21.7a2.08,2.08,0,0,1-3.788-1.176V10.7a.069.069,0,0,0-.069-.069H16.489a.07.07,0,0,0-.07.069V30.479a2.076,2.076,0,0,1-2.078,2.069H10.014a2.076,2.076,0,0,1-2.078-2.069V21.391a.07.07,0,0,0-.069-.069H2.078a.07.07,0,0,0-.069.069V43.345a.07.07,0,0,0,.069.069h42.23a1,1,0,1,1,0,2Z" fill="#fff"/><path d="M83.068,0H73.137a1,1,0,0,0,0,2h8.931v8.931a1,1,0,1,0,2,0V1A1,1,0,0,0,83.068,0Z" transform="translate(-36.069 0)" fill="#fff"/><path d="M88.286,84.677A3.858,3.858,0,1,1,84.428,80.9,3.814,3.814,0,0,1,88.286,84.677Z" transform="translate(-40.286 -40.452)" fill="#fe7774"/></g></svg>