<svg xmlns="http://www.w3.org/2000/svg" width="18" height="18" viewBox="0 0 18 18"><g transform="translate(-840 -195)"><rect width="18" height="18" rx="2" transform="translate(840 195)" fill="#666" opacity="0"/><g transform="translate(840.037 187.998)"><path d="M9.739,16.273a.564.564,0,0,0,.524-.517,6.183,6.183,0,0,1,10.324-4.015l0,0a.4.4,0,0,0,.622-.121l.151-.311a.391.391,0,0,0-.087-.463,7.307,7.307,0,0,0-12.134,4.8.565.565,0,0,0,.6.618ZM23.723,15.9q-.008-.15-.023-.3a.462.462,0,0,0-.775-.285l-.352.326v0a6.057,6.057,0,0,1,.036.669v.069a6.181,6.181,0,0,1-10.1,4.718.557.557,0,0,0-.575-.076h0a.564.564,0,0,0-.125.957,7.305,7.305,0,0,0,11.92-5.668C23.734,16.174,23.731,16.035,23.723,15.9Z" transform="translate(-7.457)" fill="#fff"/><path d="M66.9,16.907a1.446,1.446,0,1,1-1.446-1.415A1.43,1.43,0,0,1,66.9,16.907Z" transform="translate(-52.04 -5.273)" fill="#fe7774"/><path d="M71.1,40.431a.562.562,0,0,1-.4-.96l2.221-2.221,2.221,2.221a.562.562,0,0,1-.8.8L72.921,38.84l-1.426,1.426A.56.56,0,0,1,71.1,40.431Z" transform="translate(-57.344 -22.953)" fill="#fff"/><path d="M2.349,41.673.128,39.452a.562.562,0,1,1,.8-.8l1.426,1.426,1.426-1.426a.562.562,0,1,1,.8.8Z" transform="translate(0 -23.962)" fill="#fff"/></g></g></svg>