<svg xmlns="http://www.w3.org/2000/svg" width="18" height="18" viewBox="0 0 18 18">
  <g id="Group_6638" data-name="Group 6638" transform="translate(-751 -158)">
    <g id="Group_6575" data-name="Group 6575" transform="translate(631 -113)" opacity="0">
      <rect id="Rectangle_2341" data-name="Rectangle 2341" width="18" height="18" rx="2" transform="translate(120 271)" fill="#e0e0e0" opacity="0.36"/>
    </g>
    <g id="Group_6637" data-name="Group 6637" transform="translate(751 158)">
      <path id="Path_49410" data-name="Path 49410" d="M15.1,18a2.019,2.019,0,0,1-2.017-2.017V1.255a.13.13,0,0,0-.13-.13H1.254a.13.13,0,0,0-.129.13V16.746a.129.129,0,0,0,.129.129h9.421a.563.563,0,0,1,0,1.125H1.254A1.256,1.256,0,0,1,0,16.746V1.255A1.256,1.256,0,0,1,1.254,0h11.7A1.256,1.256,0,0,1,14.2,1.255V15.983a.892.892,0,1,0,1.784,0V9a.563.563,0,1,1,1.125,0v6.983A2.019,2.019,0,0,1,15.1,18Z" fill="#fff"/>
      <path id="Path_49411" data-name="Path 49411" d="M21.526,18.96H14.71A1.214,1.214,0,0,1,13.5,17.748V16.371a1.214,1.214,0,0,1,1.212-1.212h6.816a1.214,1.214,0,0,1,1.212,1.212v1.377A1.214,1.214,0,0,1,21.526,18.96ZM14.71,16.284a.087.087,0,0,0-.087.087v1.377a.087.087,0,0,0,.087.087h6.816a.087.087,0,0,0,.087-.087V16.371a.087.087,0,0,0-.087-.087Z" transform="translate(-10.967 -12.317)" fill="#fff"/>
      <path id="Path_49412" data-name="Path 49412" d="M30.651,49.125h-5.7a.563.563,0,0,1,0-1.125h5.7a.563.563,0,0,1,0,1.125Z" transform="translate(-19.818 -39)" fill="#fff"/>
      <path id="Path_49413" data-name="Path 49413" d="M30.651,59.569h-5.7a.563.563,0,1,1,0-1.125h5.7a.562.562,0,0,1,0,1.125Z" transform="translate(-19.818 -47.486)" fill="#fff"/>
      <path id="Path_49414" data-name="Path 49414" d="M30.651,70.012h-5.7a.563.563,0,0,1,0-1.125h5.7a.563.563,0,0,1,0,1.125Z" transform="translate(-19.818 -55.971)" fill="#fff"/>
      <circle id="Ellipse_1018" data-name="Ellipse 1018" cx="0.563" cy="0.563" r="0.563" transform="translate(2.718 9)" fill="#fff"/>
      <circle id="Ellipse_1019" data-name="Ellipse 1019" cx="0.563" cy="0.563" r="0.563" transform="translate(2.718 10.958)" fill="#fff"/>
      <circle id="Ellipse_1020" data-name="Ellipse 1020" cx="0.563" cy="0.563" r="0.563" transform="translate(2.718 12.916)" fill="#fff"/>
      <path id="Path_49415" data-name="Path 49415" d="M83.465,41.867a1.447,1.447,0,1,1-1.447-1.416A1.431,1.431,0,0,1,83.465,41.867Z" transform="translate(-65.465 -32.866)" fill="#fe7774"/>
    </g>
  </g>
</svg>
