<svg xmlns="http://www.w3.org/2000/svg" viewBox="0 0 170 58.53"><defs><style>.cls-1{fill:#f16667;}.cls-1,.cls-2{fill-rule:evenodd;}.cls-2{fill:#facbcb;}.cls-3{fill:#5b5f63;}</style></defs><g id="Layer_2" data-name="Layer 2"><g id="Layer_1-2" data-name="Layer 1"><path class="cls-1" d="M37,13.81a1.05,1.05,0,1,1,0,1.49A1.06,1.06,0,0,1,37,13.81Z"/><path class="cls-1" d="M12.27,38a1,1,0,1,1,0,1.48A1.05,1.05,0,0,1,12.27,38Z"/><path class="cls-1" d="M29.58,24.76a1,1,0,1,1,0,1.47A1,1,0,0,1,29.58,24.76Z"/><path class="cls-1" d="M24.61,23.34a1,1,0,1,1,0,1.48A1,1,0,0,1,24.61,23.34Z"/><path class="cls-1" d="M25.91,18.52a1,1,0,1,1,0,1.48A1,1,0,0,1,25.91,18.52Z"/><path class="cls-1" d="M19,20.77a1,1,0,0,1,1.47,0,1,1,0,1,1-1.47,0Z"/><path class="cls-1" d="M35.43,22.24a1,1,0,1,1,0,1.47A1,1,0,0,1,35.43,22.24Z"/><path class="cls-1" d="M15.72,34.58a1,1,0,0,1,1.48,1.48,1,1,0,0,1-1.48,0A1,1,0,0,1,15.72,34.58Z"/><path class="cls-1" d="M38.8,17.32a1,1,0,1,1,1.48,1.48,1,1,0,0,1-1.47,0A1.05,1.05,0,0,1,38.8,17.32Z"/><path class="cls-1" d="M19.52,45.73a1,1,0,1,1,0,1.48A1,1,0,0,1,19.52,45.73Z"/><path class="cls-1" d="M28.43,44.19a1.05,1.05,0,1,1,0,1.48A1.05,1.05,0,0,1,28.43,44.19Z"/><path class="cls-1" d="M36.39,45.79a1,1,0,1,1,1.48,1.48,1,1,0,0,1-1.48-1.48Z"/><path class="cls-1" d="M9.82,14.41a1.05,1.05,0,1,1,0,1.49A1.05,1.05,0,0,1,9.82,14.41Z"/><path class="cls-1" d="M43.06,21.05a1,1,0,1,1,0,1.48A1.05,1.05,0,0,1,43.06,21.05Z"/><path class="cls-1" d="M17.05,42.19a1.06,1.06,0,0,1,1.48,0,1,1,0,0,1,0,1.48,1,1,0,0,1-1.47,0A1.05,1.05,0,0,1,17.05,42.19Z"/><path class="cls-1" d="M10.14,41.5a1.05,1.05,0,0,1,1.48,0,1,1,0,0,1,0,1.47,1,1,0,0,1-1.48,0A1.06,1.06,0,0,1,10.14,41.5Z"/><path class="cls-1" d="M13.75,15.21a1,1,0,1,1,1.47,1.47,1,1,0,1,1-1.47-1.47Z"/><path class="cls-1" d="M24.25,52.38a1,1,0,1,1,0,1.48A1,1,0,0,1,24.25,52.38Z"/><path class="cls-1" d="M20.58,7.11a1,1,0,1,1,0,1.48A1,1,0,0,1,20.58,7.11Z"/><path class="cls-1" d="M41.62,32.83a1.06,1.06,0,0,1,1.49,0,1,1,0,0,1,0,1.48,1,1,0,0,1-1.47,0A1,1,0,0,1,41.62,32.83Z"/><path class="cls-1" d="M47.45,14a1,1,0,1,1,0,1.48A1,1,0,0,1,47.45,14Z"/><path class="cls-1" d="M15.42,8.27a1,1,0,1,1,0,1.48A1,1,0,0,1,15.42,8.27Z"/><path class="cls-1" d="M48.87,39.29a1.05,1.05,0,0,1,1.47,0,1,1,0,1,1-1.47,0Z"/><path class="cls-1" d="M28.45,5a1.06,1.06,0,0,1,1.49,0,1,1,0,0,1-1.48,1.48A1.05,1.05,0,0,1,28.45,5Z"/><path class="cls-1" d="M4.67,26.58a1.05,1.05,0,0,1,1.48,1.49,1.05,1.05,0,0,1-1.48-1.49Z"/><path class="cls-1" d="M48.49,28.69a1,1,0,0,1,1.48,0,1,1,0,1,1-1.48,0Z"/><path class="cls-1" d="M38.62,24.7a1,1,0,1,1,0,1.47A1,1,0,0,1,38.62,24.7Z"/><path class="cls-1" d="M40.44,13.05a1.05,1.05,0,0,1,1.48,0,1,1,0,0,1-1.48,1.48A1.06,1.06,0,0,1,40.44,13.05Z"/><path class="cls-1" d="M26.18,34.37a1.05,1.05,0,1,1,0,1.49A1.08,1.08,0,0,1,26.18,34.37Z"/><path class="cls-1" d="M18.84,10.19a1,1,0,1,1,0,1.48A1,1,0,0,1,18.84,10.19Z"/><path class="cls-1" d="M44.85,39.17a1,1,0,1,1,0,1.48A1,1,0,0,1,44.85,39.17Z"/><path class="cls-1" d="M23,4.35a1,1,0,1,1,0,1.48A1,1,0,0,1,23,4.35Z"/><path class="cls-1" d="M37.82,51.32a1.05,1.05,0,0,1,1.47,0,1,1,0,1,1-1.48,1.48A1.05,1.05,0,0,1,37.82,51.32Z"/><path class="cls-1" d="M53.83,29.81a1,1,0,1,1,0,1.48A1.05,1.05,0,0,1,53.83,29.81Z"/><path class="cls-1" d="M8.87,45a1,1,0,0,1,1.48,0,1,1,0,0,1-1.48,1.48A1,1,0,0,1,8.87,45Z"/><path class="cls-1" d="M44.52,46.23a1,1,0,0,1,1.48,0,1,1,0,0,1-1.47,1.47A1,1,0,0,1,44.52,46.23Z"/><path class="cls-1" d="M31.77,3.25a1,1,0,1,1,0,1.48A1,1,0,0,1,31.77,3.25Z"/><path class="cls-1" d="M53.93,18.09a1,1,0,1,1,0,1.47A1,1,0,0,1,53.93,18.09Z"/><path class="cls-1" d="M56.44,21.36a1,1,0,1,1,0,1.47A1,1,0,0,1,56.44,21.36Z"/><path class="cls-1" d="M52,21.23a1,1,0,1,1,1.48,1.48A1,1,0,0,1,52,21.23Z"/><path class="cls-1" d="M29.51,53.94A1.05,1.05,0,0,1,31,54a1,1,0,0,1,0,1.47,1,1,0,0,1-1.48-1.48Z"/><path class="cls-1" d="M3.32,23.08a1,1,0,1,1,0,1.48A1.05,1.05,0,0,1,3.32,23.08Z"/><path class="cls-1" d="M3.65,31.94a1.05,1.05,0,0,1,1.49,1.48,1.06,1.06,0,0,1-1.49,0A1,1,0,0,1,3.65,31.94Z"/><path class="cls-1" d="M43.18,49.71a1,1,0,1,1,0,1.48A1,1,0,0,1,43.18,49.71Z"/><path class="cls-1" d="M41.13,53a1.06,1.06,0,0,1,1.48,0,1,1,0,0,1,0,1.48,1,1,0,0,1-1.47,0A1,1,0,0,1,41.13,53Z"/><path class="cls-1" d="M48.91,43a1,1,0,1,1,0,1.47A1,1,0,0,1,48.91,43Z"/><path class="cls-1" d="M48.2,46.78a1,1,0,1,1,1.48,1.48,1,1,0,0,1-1.47,0A1.05,1.05,0,0,1,48.2,46.78Z"/><path class="cls-1" d="M46.68,50.49a1,1,0,1,1,0,1.47A1,1,0,0,1,46.68,50.49Z"/><path class="cls-1" d="M26.09,2.05a1,1,0,1,1,0,1.48A1.05,1.05,0,0,1,26.09,2.05Z"/><path class="cls-1" d="M29.58.31a1.05,1.05,0,0,1,1.48,0,1.05,1.05,0,1,1-1.48,0Z"/><path class="cls-1" d="M35.27,54.14a1,1,0,1,1,0,1.47A1,1,0,0,1,35.27,54.14Z"/><path class="cls-1" d="M32.22,56.75a1,1,0,1,1,1.47,1.48,1,1,0,1,1-1.47-1.48Z"/><path class="cls-1" d="M52.54,38.67A1,1,0,1,1,54,40.15a1,1,0,0,1-1.47,0A1.05,1.05,0,0,1,52.54,38.67Z"/><path class="cls-1" d="M52.52,42.61a1.05,1.05,0,0,1,1.48,0,1,1,0,1,1-1.48,0Z"/><path class="cls-1" d="M51.85,26.64a1,1,0,0,1,1.48,0,1,1,0,0,1,0,1.47,1,1,0,1,1-1.48-1.47Z"/><path class="cls-1" d="M55.25,33.4a1,1,0,1,1,0,1.48A1,1,0,0,1,55.25,33.4Z"/><path class="cls-1" d="M55.72,37.05a1.05,1.05,0,1,1,0,1.47A1,1,0,0,1,55.72,37.05Z"/><path class="cls-1" d="M35.49,2.22a1,1,0,1,1,0,1.48A1,1,0,0,1,35.49,2.22Z"/><path class="cls-1" d="M40,2.11a1,1,0,1,1,1.48,1.48,1,1,0,0,1-1.47,0A1,1,0,0,1,40,2.11Z"/><path class="cls-1" d="M50.82,15.75a1,1,0,1,1,0,1.47A1,1,0,0,1,50.82,15.75Z"/><path class="cls-1" d="M37.37,9.52A1,1,0,1,1,38.84,11a1,1,0,0,1-1.47-1.48Z"/><path class="cls-1" d="M48.31,10.43a1,1,0,1,1,0,1.48A1.05,1.05,0,0,1,48.31,10.43Z"/><path class="cls-1" d="M52,12.3a1,1,0,1,1,0,1.47A1,1,0,0,1,52,12.3Z"/><path class="cls-1" d="M54.55,24.07a1,1,0,1,1,0,1.48A1.05,1.05,0,0,1,54.55,24.07Z"/><path class="cls-1" d="M40.58,5.33a1.05,1.05,0,0,1,1.49,1.48,1.05,1.05,0,0,1-1.49-1.48Z"/><path class="cls-1" d="M44.49,5.69a1,1,0,1,1,0,1.48A1,1,0,0,1,44.49,5.69Z"/><path class="cls-1" d="M36.79,5.69a1,1,0,0,1,1.47,0,1,1,0,0,1,0,1.48,1,1,0,0,1-1.47-1.48Z"/><path class="cls-1" d="M2.61,19.27a1.05,1.05,0,1,1,0,1.49A1.05,1.05,0,0,1,2.61,19.27Z"/><path class="cls-1" d="M5.42,43.33a1,1,0,1,1,0,1.48A1.05,1.05,0,0,1,5.42,43.33Z"/><path class="cls-1" d="M2.61,40.7a1,1,0,1,1,1.47,1.48,1,1,0,0,1-1.47,0A1,1,0,0,1,2.61,40.7Z"/><path class="cls-1" d="M26.09,55.62a1,1,0,1,1,0,1.48A1,1,0,0,1,26.09,55.62Z"/><path class="cls-1" d="M32.48,51.62a1,1,0,1,1,0,1.48A1,1,0,0,1,32.48,51.62Z"/><path class="cls-1" d="M6.05,34.64a1,1,0,1,1,0,1.48A1,1,0,0,1,6.05,34.64Z"/><path class="cls-1" d="M6.82,39.92a1,1,0,1,1,0,1.47A1,1,0,0,1,6.82,39.92Z"/><path class="cls-1" d="M3.89,37.65a1,1,0,1,1,0,1.48A1.05,1.05,0,0,1,3.89,37.65Z"/><path class="cls-1" d="M19.65,49.8a1,1,0,1,1,0,1.47A1,1,0,0,1,19.65,49.8Z"/><path class="cls-1" d="M16,50.14a1,1,0,1,1,0,1.48A1.05,1.05,0,0,1,16,50.14Z"/><path class="cls-1" d="M12.18,49.8a1,1,0,1,1,0,1.48A1.05,1.05,0,0,1,12.18,49.8Z"/><path class="cls-1" d="M8.3,48.49A1,1,0,1,1,8.3,50,1.05,1.05,0,0,1,8.3,48.49Z"/><path class="cls-1" d="M16.74,53.77a1,1,0,1,1,0,1.48A1,1,0,0,1,16.74,53.77Z"/><path class="cls-1" d="M20.63,53.44a1,1,0,1,1,0,1.47A1,1,0,0,1,20.63,53.44Z"/><path class="cls-1" d="M27.48,50.71a1,1,0,1,1,0,1.48A1,1,0,0,1,27.48,50.71Z"/><path class="cls-1" d="M10.49,10.76a1,1,0,1,1,0,1.48A1,1,0,0,1,10.49,10.76Z"/><path class="cls-1" d="M17.4,5.07a1,1,0,0,1,1.48,1.48A1,1,0,1,1,17.4,5.07Z"/><path class="cls-1" d="M20.08,2.16a1.05,1.05,0,1,1,0,1.49A1.05,1.05,0,0,1,20.08,2.16Z"/><path class="cls-1" d="M51.86,35a1,1,0,0,1,1.47,0,1,1,0,1,1-1.47,1.47A1,1,0,0,1,51.86,35Z"/><path class="cls-1" d="M44.63,9.39a1,1,0,1,1,0,1.47A1,1,0,0,1,44.63,9.39Z"/><path class="cls-1" d="M12.47,46.1a1,1,0,1,1,0,1.47A1,1,0,0,1,12.47,46.1Z"/><path class="cls-1" d="M56.92,27.78a1,1,0,1,1,0,1.48A1,1,0,0,1,56.92,27.78Z"/><path class="cls-1" d="M1.23,34.71a1,1,0,1,1,0,1.48A1,1,0,0,1,1.23,34.71Z"/><path class="cls-1" d="M6.85,10.58a1,1,0,0,1,1.47,0,1,1,0,1,1-1.48,1.48A1,1,0,0,1,6.85,10.58Z"/><path class="cls-1" d="M6.11,18.24a1,1,0,1,1,0,1.48A1,1,0,0,1,6.11,18.24Z"/><path class="cls-1" d="M11.94,7.14a1,1,0,1,1,0,1.48A1,1,0,0,1,11.94,7.14Z"/><path class="cls-1" d="M13.86,3.9a1,1,0,1,1,0,1.48A1.05,1.05,0,0,1,13.86,3.9Z"/><path class="cls-1" d="M6.13,14.45a1,1,0,0,1,1.47,0,1,1,0,0,1,0,1.48,1.06,1.06,0,0,1-1.48,0A1,1,0,0,1,6.13,14.45Z"/><path class="cls-1" d="M1.62,28.67a1,1,0,1,1,0,1.47A1,1,0,0,1,1.62,28.67Z"/><path class="cls-1" d="M.31,25a1,1,0,0,1,1.47,0A1,1,0,1,1,.3,26.44,1.05,1.05,0,0,1,.31,25Z"/><path class="cls-1" d="M23.47,10a1,1,0,1,1,0,1.48A1,1,0,0,1,23.47,10Z"/><path class="cls-1" d="M31.1,18.65a1.05,1.05,0,0,1,1.48,0,1.05,1.05,0,0,1-1.49,1.49A1.05,1.05,0,0,1,31.1,18.65Z"/><path class="cls-1" d="M31.21,12.83a1.05,1.05,0,1,1,0,1.48A1.05,1.05,0,0,1,31.21,12.83Z"/><path class="cls-1" d="M33.53,34.12a1,1,0,0,1,1.48,0,1,1,0,0,1-1.48,1.48A1,1,0,0,1,33.53,34.12Z"/><path class="cls-1" d="M45.83,26.37a1,1,0,1,1,0,1.48A1,1,0,0,1,45.83,26.37Z"/><path class="cls-1" d="M36.85,38.3a1,1,0,1,1,0,1.48A1,1,0,0,1,36.85,38.3Z"/><path class="cls-1" d="M19.46,37.6a1.08,1.08,0,0,1,1.49,0,1.05,1.05,0,1,1-1.49,0Z"/><path class="cls-1" d="M23.68,38.8a1,1,0,1,1,1.48,1.48,1,1,0,0,1-1.47,0A1.05,1.05,0,0,1,23.68,38.8Z"/><path class="cls-1" d="M30,40.7a1,1,0,1,1,0,1.48A1,1,0,0,1,30,40.7Z"/><path class="cls-1" d="M19.47,28.68a1,1,0,1,1,0,1.47A1,1,0,0,1,19.47,28.68Z"/><path class="cls-1" d="M8.26,25.12A1,1,0,1,1,9.73,26.6a1,1,0,0,1-1.47-1.48Z"/><path class="cls-1" d="M30.18,8.48a1,1,0,1,1,0,1.47A1,1,0,0,1,30.18,8.48Z"/><path class="cls-1" d="M40.81,44.86a1.07,1.07,0,0,1,1.49,0,1.05,1.05,0,0,1,0,1.48,1,1,0,0,1-1.47,0A1.05,1.05,0,0,1,40.81,44.86Z"/><path class="cls-1" d="M10.88,21.4a1,1,0,1,1,0,1.48A1,1,0,0,1,10.88,21.4Z"/><path class="cls-1" d="M38.28,30.12a1,1,0,1,1,0,1.48A1,1,0,0,1,38.28,30.12Z"/><path class="cls-1" d="M17.84,17.13a1,1,0,1,1,0,1.47A1.05,1.05,0,0,1,17.84,17.13Z"/><path class="cls-1" d="M46.53,32.66a1,1,0,0,1,1.48,0,1,1,0,0,1-1.47,1.47A1.05,1.05,0,0,1,46.53,32.66Z"/><path class="cls-1" d="M15.32,26.93a1,1,0,0,1,1.48,0,1.06,1.06,0,0,1,0,1.48,1,1,0,0,1-1.48-1.48Z"/><path class="cls-1" d="M25.76,14.3a1,1,0,1,1,0,1.48A1.05,1.05,0,0,1,25.76,14.3Z"/><path class="cls-1" d="M9.14,32.09a1,1,0,0,1,1.48,0,1.06,1.06,0,0,1,0,1.48,1,1,0,0,1-1.48-1.48Z"/><path class="cls-1" d="M22.76,44.29a1,1,0,0,1,1.48,1.48,1,1,0,0,1-1.48-1.48Z"/><path class="cls-1" d="M30.82,31a1,1,0,1,1,0,1.48A1,1,0,0,1,30.82,31Z"/><path class="cls-2" d="M15.59,22a1,1,0,1,1,0,1.48A1,1,0,0,1,15.59,22Z"/><path class="cls-2" d="M29.12,28.23a1,1,0,0,1,1.48,1.48,1.06,1.06,0,0,1-1.48,0A1,1,0,0,1,29.12,28.23Z"/><path class="cls-2" d="M21.33,24.11a1.06,1.06,0,0,1,1.48,0,1,1,0,1,1-1.48,0Z"/><path class="cls-2" d="M13.3,30a1,1,0,1,1,0,1.48A1,1,0,0,1,13.3,30Z"/><path class="cls-2" d="M12.63,24.45a1,1,0,1,1,0,1.48A1,1,0,0,1,12.63,24.45Z"/><path class="cls-2" d="M34.81,30.28a1,1,0,0,1,1.47,0,1,1,0,1,1-1.47,0Z"/><path class="cls-2" d="M20.5,41.13a1,1,0,1,1,0,1.49A1.06,1.06,0,0,1,20.5,41.13Z"/><path class="cls-2" d="M13.6,42.27a1,1,0,1,1,0,1.48A1.05,1.05,0,0,1,13.6,42.27Z"/><path class="cls-2" d="M19.87,34.11a1,1,0,1,1,1.47,1.47,1,1,0,0,1-1.47-1.47Z"/><path class="cls-2" d="M43.94,13.15a1.05,1.05,0,0,1,1.49,1.48,1.05,1.05,0,0,1-1.49-1.48Z"/><path class="cls-2" d="M14.15,18.7a1,1,0,1,1,0,1.48A1.05,1.05,0,0,1,14.15,18.7Z"/><path class="cls-2" d="M50.5,31.6a1,1,0,1,1,0,1.48A1,1,0,0,1,50.5,31.6Z"/><path class="cls-2" d="M14.17,11.7a1,1,0,1,1,0,1.48A1,1,0,0,1,14.17,11.7Z"/><path class="cls-2" d="M37.14,42a1,1,0,1,1,0,1.48A1.05,1.05,0,0,1,37.14,42Z"/><path class="cls-2" d="M43.71,35.81a1.05,1.05,0,1,1,0,1.48A1.06,1.06,0,0,1,43.71,35.81Z"/><path class="cls-2" d="M33.84,15.59a1,1,0,1,1,0,1.47A1,1,0,0,1,33.84,15.59Z"/><path class="cls-2" d="M33.32,38a1,1,0,0,1,1.47,0,1,1,0,1,1-1.48,1.48A1,1,0,0,1,33.32,38Z"/><path class="cls-2" d="M17.85,13.59a1,1,0,0,1,1.47,1.48,1,1,0,1,1-1.47-1.48Z"/><path class="cls-2" d="M45.09,42.65a1,1,0,1,1,0,1.48A1,1,0,0,1,45.09,42.65Z"/><path class="cls-2" d="M39.69,48.2a1,1,0,1,1,0,1.48A1,1,0,0,1,39.69,48.2Z"/><path class="cls-2" d="M49.36,24a1,1,0,0,1,1.47,0,1,1,0,1,1-1.48,1.48A1,1,0,0,1,49.36,24Z"/><path class="cls-2" d="M40.88,9.06a1.06,1.06,0,0,1,1.48,0,1,1,0,1,1-1.48,1.48A1.06,1.06,0,0,1,40.88,9.06Z"/><path class="cls-2" d="M34.09,10.75a1,1,0,1,1,0,1.48A1,1,0,0,1,34.09,10.75Z"/><path class="cls-2" d="M34.8,48.91a1,1,0,1,1,0,1.48A1.05,1.05,0,0,1,34.8,48.91Z"/><path class="cls-2" d="M26,46.83a1,1,0,1,1,0,1.48A1.05,1.05,0,0,1,26,46.83Z"/><path class="cls-2" d="M6.83,21.86a1,1,0,1,1,0,1.48A1.05,1.05,0,0,1,6.83,21.86Z"/><path class="cls-2" d="M46.39,22.12a1,1,0,1,1,0,1.48A1,1,0,0,1,46.39,22.12Z"/><path class="cls-2" d="M27.64,10.92a1,1,0,1,1,0,1.47A1,1,0,0,1,27.64,10.92Z"/><path class="cls-2" d="M42.53,24.86a1,1,0,1,1,0,1.47A1,1,0,0,1,42.53,24.86Z"/><path class="cls-2" d="M31.8,22.17a1,1,0,1,1,0,1.47A1,1,0,0,1,31.8,22.17Z"/><path class="cls-2" d="M23.26,35.29a1,1,0,1,1,0,1.48A1.05,1.05,0,0,1,23.26,35.29Z"/><path class="cls-2" d="M10.37,27.87a1,1,0,1,1,0,1.48A1,1,0,0,1,10.37,27.87Z"/><path class="cls-2" d="M48.12,35.8a1,1,0,1,1,0,1.49A1.05,1.05,0,0,1,48.12,35.8Z"/><path class="cls-2" d="M44.16,30a1,1,0,1,1,0,1.48A1.05,1.05,0,0,1,44.16,30Z"/><path class="cls-2" d="M40.92,28.11a1,1,0,1,1,0,1.48A1,1,0,0,1,40.92,28.11Z"/><path class="cls-2" d="M41.09,41.36a1,1,0,1,1,0,1.48A1,1,0,0,1,41.09,41.36Z"/><path class="cls-2" d="M37.94,34.26a1,1,0,1,1,0,1.48A1.05,1.05,0,0,1,37.94,34.26Z"/><path class="cls-2" d="M32.23,27.44a1,1,0,1,1,0,1.47A1,1,0,0,1,32.23,27.44Z"/><path class="cls-2" d="M40.4,37.87a1,1,0,0,1,1.48,1.48,1,1,0,1,1-1.48-1.48Z"/><path class="cls-2" d="M35.64,26a1,1,0,0,1,1.48,0,1.06,1.06,0,0,1,0,1.48A1,1,0,1,1,35.64,26Z"/><path class="cls-2" d="M39.37,21a1,1,0,0,1,1.48,0,1,1,0,0,1-1.48,1.48A1,1,0,0,1,39.37,21Z"/><path class="cls-2" d="M25.61,7.23a1,1,0,0,1,1.48,0,1.06,1.06,0,0,1,0,1.48,1,1,0,0,1-1.48-1.48Z"/><path class="cls-2" d="M22,13.19a1,1,0,1,1,0,1.48A1,1,0,0,1,22,13.19Z"/><path class="cls-2" d="M28,21.46a1,1,0,1,1,0,1.48A1,1,0,0,1,28,21.46Z"/><path class="cls-2" d="M29,15.84a1,1,0,1,1,0,1.48A1,1,0,0,1,29,15.84Z"/><path class="cls-2" d="M35.29,18.87a1.05,1.05,0,1,1,0,1.48A1,1,0,0,1,35.29,18.87Z"/><path class="cls-2" d="M42.32,17a1.05,1.05,0,1,1,0,1.48A1.06,1.06,0,0,1,42.32,17Z"/><path class="cls-2" d="M26.39,26.48a1,1,0,1,1,0,1.48A1,1,0,0,1,26.39,26.48Z"/><path class="cls-2" d="M29.92,34.88a1,1,0,0,1,1.48,1.47,1,1,0,1,1-1.48-1.47Z"/><path class="cls-2" d="M27.6,37.91a1,1,0,1,1,0,1.48A1,1,0,0,1,27.6,37.91Z"/><path class="cls-2" d="M16.07,46.33a1,1,0,1,1,0,1.48A1,1,0,0,1,16.07,46.33Z"/><path class="cls-2" d="M33.3,42.15a1,1,0,1,1,0,1.48A1,1,0,0,1,33.3,42.15Z"/><path class="cls-2" d="M32.16,45.54a1,1,0,0,1,1.48,0,1,1,0,0,1,0,1.47,1,1,0,1,1-1.48-1.48Z"/><path class="cls-2" d="M10,18a1,1,0,0,1,1.47,0A1,1,0,1,1,10,18Z"/><path class="cls-2" d="M23.18,31.09a1.05,1.05,0,0,1,1.48,1.49,1.05,1.05,0,0,1-1.48-1.49Z"/><path class="cls-2" d="M16.91,31.17a1,1,0,1,1,0,1.48A1.05,1.05,0,0,1,16.91,31.17Z"/><path class="cls-2" d="M27,30.91a1,1,0,0,1,1.48,0,1.06,1.06,0,0,1,0,1.48A1,1,0,0,1,27,30.91Z"/><path class="cls-2" d="M18.31,25a1,1,0,1,1,0,1.47A1.05,1.05,0,0,1,18.31,25Z"/><path class="cls-2" d="M33.29,6.75a1.05,1.05,0,1,1,0,1.48A1.05,1.05,0,0,1,33.29,6.75Z"/><path class="cls-2" d="M25.51,41.89a1,1,0,1,1,0,1.48A1.05,1.05,0,0,1,25.51,41.89Z"/><path class="cls-2" d="M30.18,48.4a1,1,0,0,1,1.47,0,1,1,0,0,1,0,1.48,1.06,1.06,0,0,1-1.48,0A1,1,0,0,1,30.18,48.4Z"/><path class="cls-2" d="M15.78,38.35a1,1,0,1,1,0,1.48A1,1,0,0,1,15.78,38.35Z"/><path class="cls-2" d="M21.59,16.79a1,1,0,1,1,0,1.48A1,1,0,0,1,21.59,16.79Z"/><path class="cls-2" d="M45.76,17.59a1,1,0,0,1,1.48,0,1.06,1.06,0,0,1,0,1.48,1,1,0,0,1-1.48-1.48Z"/><path class="cls-2" d="M9,36.71a1,1,0,1,1,0,1.48A1,1,0,0,1,9,36.71Z"/><path class="cls-2" d="M23.07,48.67a1.05,1.05,0,1,1,0,1.48A1.05,1.05,0,0,1,23.07,48.67Z"/><path class="cls-2" d="M6.58,29.62A1,1,0,1,1,8.06,31.1a1,1,0,0,1-1.48-1.48Z"/><path class="cls-2" d="M12.2,33.81a1,1,0,1,1,0,1.48A1,1,0,0,1,12.2,33.81Z"/><path class="cls-2" d="M49.05,19.07a1,1,0,1,1,0,1.48A1,1,0,0,1,49.05,19.07Z"/><path class="cls-2" d="M22.58,20.37a1,1,0,1,1,0,1.48A1.05,1.05,0,0,1,22.58,20.37Z"/><path class="cls-2" d="M22.94,27.32a1,1,0,1,1,0,1.47A1,1,0,0,1,22.94,27.32Z"/><path class="cls-3" d="M65,27V12.4c0-.4.27-.6.82-.6s.82.2.82.6V27a.55.55,0,0,1-.25.47,1,1,0,0,1-.57.17,1,1,0,0,1-.58-.17A.54.54,0,0,1,65,27Z"/><path class="cls-3" d="M82.33,24V12.43a.52.52,0,0,1,.25-.42.92.92,0,0,1,.55-.17,1,1,0,0,1,.58.17.49.49,0,0,1,.24.42v3.44h3.1a.67.67,0,0,1,.5.24.78.78,0,0,1,.2.45,1,1,0,0,1-.2.69.64.64,0,0,1-.51.24H84V24a2.28,2.28,0,0,0,.52,1.69,2.62,2.62,0,0,0,1.8.48H87a.73.73,0,0,1,.75.75.76.76,0,0,1-.21.54.68.68,0,0,1-.54.23h-.7Q82.33,27.66,82.33,24Z"/><path class="cls-3" d="M101.18,27V11.63a.52.52,0,0,1,.23-.42A.88.88,0,0,1,102,11a.94.94,0,0,1,.59.18.51.51,0,0,1,.24.42V27a.6.6,0,0,1-.24.45.89.89,0,0,1-.59.19.86.86,0,0,1-.56-.19A.6.6,0,0,1,101.18,27Z"/><path class="cls-3" d="M106.35,27V11.63a.51.51,0,0,1,.22-.42.88.88,0,0,1,.57-.18.94.94,0,0,1,.59.18.51.51,0,0,1,.24.42V27a.6.6,0,0,1-.24.45.89.89,0,0,1-.59.19.82.82,0,0,1-.55-.19A.6.6,0,0,1,106.35,27Z"/><path class="cls-3" d="M150.42,23.1V20.43a4.8,4.8,0,0,1,1.22-3.4,4.71,4.71,0,0,1,3.6-1.31,5.38,5.38,0,0,1,2.5.53c.68.36,1,.72,1,1.09a.84.84,0,0,1-.22.54.67.67,0,0,1-.5.26,1,1,0,0,1-.46-.22,4.53,4.53,0,0,0-.89-.45,3.74,3.74,0,0,0-1.37-.23,3.29,3.29,0,0,0-2.43.84,3.21,3.21,0,0,0-.83,2.36v2.65a3.21,3.21,0,0,0,.83,2.38,3.3,3.3,0,0,0,2.46.85,4,4,0,0,0,1.43-.23,4.61,4.61,0,0,0,.9-.46,1,1,0,0,1,.48-.24.69.69,0,0,1,.54.25.84.84,0,0,1,.21.55c0,.39-.35.75-1,1.11a5.65,5.65,0,0,1-2.6.54,4.74,4.74,0,0,1-3.62-1.3A4.82,4.82,0,0,1,150.42,23.1Z"/><path class="cls-3" d="M65,49.58V35c0-.37.33-.62.82-.62.69,0,.88.45,1.31,1.14l6.72,11V34.94c0-.4.28-.6.82-.6s.83.2.83.6V49.58c0,.49-.53.65-.83.65-.56,0-.79-.26-1.17-.92L66.67,38.09V49.58a.56.56,0,0,1-.25.48,1,1,0,0,1-.57.17,1,1,0,0,1-.58-.17A.55.55,0,0,1,65,49.58Z"/><path class="cls-3" d="M78.17,45.67V43a4.46,4.46,0,0,1,1.39-3.28,4.56,4.56,0,0,1,3.32-1.38,4.63,4.63,0,0,1,3.34,1.37A4.4,4.4,0,0,1,87.65,43v2.72A4.51,4.51,0,0,1,86.21,49a4.56,4.56,0,0,1-3.33,1.44,4.89,4.89,0,0,1-4.71-4.74Zm1.62,0a3.05,3.05,0,0,0,.95,2.19,2.9,2.9,0,0,0,2.14.94,3.16,3.16,0,0,0,2.2-1A2.92,2.92,0,0,0,86,45.66V43a3.06,3.06,0,0,0-.93-2.18,2.86,2.86,0,0,0-2.21-.87,3.26,3.26,0,0,0-2.16.88A2.69,2.69,0,0,0,79.79,43Z"/><path class="cls-3" d="M89.11,23.13v-2.8a4.73,4.73,0,0,1,8-3.26,4.36,4.36,0,0,1,1.47,3.22,3.08,3.08,0,0,1-.22,1.12,1,1,0,0,1-.52.59,2.61,2.61,0,0,1-.66.23,5.82,5.82,0,0,1-.83.05H90.74v.92a2.82,2.82,0,0,0,1,2.14,4,4,0,0,0,3,.91A4.09,4.09,0,0,0,97,25.54a.6.6,0,0,1,.42-.15.88.88,0,0,1,.59.31.75.75,0,0,1,.19.52c0,.43-.33.71-1,1.09a5.8,5.8,0,0,1-2.67.56,5.6,5.6,0,0,1-3.85-1.36A4.73,4.73,0,0,1,89.11,23.13Zm1.63-2.48h4.68c.5,0,1.17,0,1.37,0s.18-.05.18-.16a3,3,0,0,0-.89-2.21,2.88,2.88,0,0,0-2.23-.9,3.38,3.38,0,0,0-2.21.89,2.74,2.74,0,0,0-.9,2.13Z"/><path class="cls-3" d="M126.6,23.13v-2.8a4.74,4.74,0,0,1,8-3.26,4.39,4.39,0,0,1,1.46,3.22,3.33,3.33,0,0,1-.21,1.12,1,1,0,0,1-.53.59,2.61,2.61,0,0,1-.66.23,5.66,5.66,0,0,1-.82.05h-5.64v.92a2.82,2.82,0,0,0,1,2.14,4,4,0,0,0,3,.91,4.06,4.06,0,0,0,2.22-.71.6.6,0,0,1,.42-.15.86.86,0,0,1,.59.31.75.75,0,0,1,.19.52c0,.43-.32.71-1,1.09a5.8,5.8,0,0,1-2.67.56,5.57,5.57,0,0,1-3.84-1.36A4.69,4.69,0,0,1,126.6,23.13Zm1.63-2.48h4.68c.5,0,1.18,0,1.37,0s.18-.05.19-.16a3,3,0,0,0-.9-2.21,2.88,2.88,0,0,0-2.22-.9,3.36,3.36,0,0,0-2.21.89,2.75,2.75,0,0,0-.91,2.13Z"/><path class="cls-3" d="M160.51,23.1V20.3a4.73,4.73,0,0,1,8-3.26A4.38,4.38,0,0,1,170,20.26a3.28,3.28,0,0,1-.21,1.12,1.09,1.09,0,0,1-.53.6,3,3,0,0,1-.66.22,5.76,5.76,0,0,1-.82.05h-5.64v.92a2.82,2.82,0,0,0,1,2.14,4,4,0,0,0,3,.91,4.06,4.06,0,0,0,2.22-.71.66.66,0,0,1,.42-.15.86.86,0,0,1,.59.31.75.75,0,0,1,.19.52c0,.43-.33.71-1,1.09a5.8,5.8,0,0,1-2.67.56A5.51,5.51,0,0,1,162,26.48,4.69,4.69,0,0,1,160.51,23.1Zm1.63-2.47h4.68c.5,0,1.17,0,1.37,0s.18-.06.18-.17a2.93,2.93,0,0,0-.89-2.21,2.88,2.88,0,0,0-2.22-.9,3.36,3.36,0,0,0-2.21.89,2.72,2.72,0,0,0-.91,2.13Z"/><path class="cls-3" d="M101.76,45.67V42.88a4.73,4.73,0,0,1,8-3.27,4.42,4.42,0,0,1,1.46,3.22A3.28,3.28,0,0,1,111,44a1.09,1.09,0,0,1-.53.6,2.55,2.55,0,0,1-.66.22,5.66,5.66,0,0,1-.82,0h-5.63v.92a2.84,2.84,0,0,0,1,2.15,4.07,4.07,0,0,0,3,.9,3.93,3.93,0,0,0,2.22-.7c.24-.15.29-.16.43-.16a.88.88,0,0,1,.58.31.83.83,0,0,1,.2.52c0,.44-.34.72-1,1.09a5.74,5.74,0,0,1-2.67.56,5.52,5.52,0,0,1-3.84-1.36A4.66,4.66,0,0,1,101.76,45.67Zm1.63-2.47h4.67c.5,0,1.18,0,1.37,0s.18,0,.19-.17a3,3,0,0,0-.89-2.21,2.92,2.92,0,0,0-2.23-.9,3.36,3.36,0,0,0-2.21.89,2.77,2.77,0,0,0-.9,2.13Z"/><path class="cls-3" d="M70,27V16.45a.53.53,0,0,1,.23-.44.94.94,0,0,1,.57-.16.83.83,0,0,1,.53.18.53.53,0,0,1,.22.43v1.05a3.78,3.78,0,0,1,1.25-1.2,4.12,4.12,0,0,1,2.1-.59A4.18,4.18,0,0,1,78,17.07a5.58,5.58,0,0,1,1.33,3.69V27a.53.53,0,0,1-.25.47,1,1,0,0,1-.58.18.93.93,0,0,1-.55-.18.54.54,0,0,1-.24-.47V20.76a3.73,3.73,0,0,0-.91-2.47,2.93,2.93,0,0,0-2.22-.94,2.76,2.76,0,0,0-2,.91,3.71,3.71,0,0,0-.93,2.58V27a.6.6,0,0,1-.25.45.93.93,0,0,1-.58.2.84.84,0,0,1-.57-.2A.62.62,0,0,1,70,27Z"/><path class="cls-3" d="M138.46,27V16.45a.54.54,0,0,1,.22-.44,1,1,0,0,1,.58-.16.85.85,0,0,1,.53.18.53.53,0,0,1,.22.43v1.05a3.68,3.68,0,0,1,1.25-1.2,4.12,4.12,0,0,1,2.1-.59,4.18,4.18,0,0,1,3.12,1.35,5.58,5.58,0,0,1,1.33,3.69V27a.55.55,0,0,1-.25.47,1,1,0,0,1-.58.18.93.93,0,0,1-.55-.18.53.53,0,0,1-.25-.47V20.76a3.77,3.77,0,0,0-.9-2.47,2.94,2.94,0,0,0-2.22-.94,2.76,2.76,0,0,0-2,.91,3.71,3.71,0,0,0-.93,2.58V27a.6.6,0,0,1-.25.45.93.93,0,0,1-.58.2.89.89,0,0,1-.58-.2A.64.64,0,0,1,138.46,27Z"/><path class="cls-3" d="M89.93,45.66V42.94a4.71,4.71,0,0,1,1.31-3.24,4.5,4.5,0,0,1,5.06-1,4.89,4.89,0,0,1,1.32.92V33.69a.51.51,0,0,1,.25-.43,1.06,1.06,0,0,1,.6-.17.89.89,0,0,1,.56.17.54.54,0,0,1,.21.43V49.57A.57.57,0,0,1,99,50a.78.78,0,0,1-.55.2.79.79,0,0,1-.54-.2.6.6,0,0,1-.24-.45v-.83a3.79,3.79,0,0,1-1.29,1.06,4,4,0,0,1-2,.49,4.26,4.26,0,0,1-3.21-1.49A4.43,4.43,0,0,1,89.93,45.66Zm1.58,0a2.7,2.7,0,0,0,.9,2,2.9,2.9,0,0,0,2.18,1,3.25,3.25,0,0,0,3-3V43.14a2.8,2.8,0,0,0-1-2.4,2.75,2.75,0,0,0-2.07-.83,3.21,3.21,0,0,0-2.26,1A2.94,2.94,0,0,0,91.51,43Z"/><path class="cls-3" d="M115.06,30.15a2.86,2.86,0,0,1,2.12-2.72,1.74,1.74,0,0,1-1.37-1.71,2,2,0,0,1,1.24-1.79,3.88,3.88,0,0,1-1.37-3.14v-.95a3.9,3.9,0,0,1,1.19-3,4.72,4.72,0,0,1,6-.11,3.66,3.66,0,0,1,.84-1.13,1.53,1.53,0,0,1,.94-.43.64.64,0,0,1,.54.2.66.66,0,0,1,.2.46.71.71,0,0,1-.42.63,2.74,2.74,0,0,0-1.41,1,3.77,3.77,0,0,1,.7,2.35v1a4,4,0,0,1-1.22,3A4.3,4.3,0,0,1,120,24.91a3.38,3.38,0,0,1-1.68-.33,3.29,3.29,0,0,0-.77.49.73.73,0,0,0-.28.49c0,.37.25.55.63.73a4.41,4.41,0,0,0,1.4.35l1.87.24a13.87,13.87,0,0,1,1.88.38,3,3,0,0,1,1.43.92,2.6,2.6,0,0,1,.57,1.74,3,3,0,0,1-1.34,2.62,6.2,6.2,0,0,1-3.54.92,6.67,6.67,0,0,1-3.65-.9A2.73,2.73,0,0,1,115.06,30.15Zm1.56-.13a1.36,1.36,0,0,0,.87,1.37,5.69,5.69,0,0,0,1.38.44,6.71,6.71,0,0,0,1.51.09,7.77,7.77,0,0,0,1.61-.26c1.27-.42,1.5-1.26,1.51-1.62a1.66,1.66,0,0,0-1.58-1.66c-.75-.13-1.63-.22-1.93-.26L118.91,28a6,6,0,0,0-1,.49,4.89,4.89,0,0,0-.79.58A1.38,1.38,0,0,0,116.62,30Zm.63-9.27a2.63,2.63,0,0,0,.8,1.94,2.71,2.71,0,0,0,2,.78,2.74,2.74,0,0,0,1.94-.86,2.64,2.64,0,0,0,.75-1.83v-.73a2.72,2.72,0,0,0-5.44-.23Z"/><path class="cls-3" d="M111.31,27V16.47a.53.53,0,0,1,.22-.43,1.07,1.07,0,0,1,1.16,0,.52.52,0,0,1,.24.43V27a.58.58,0,0,1-.25.45.87.87,0,0,1-.57.19.85.85,0,0,1-.56-.19A.6.6,0,0,1,111.31,27Z"/><path class="cls-1" d="M111,12.8a1.12,1.12,0,1,0,1.11-1.11A1.12,1.12,0,0,0,111,12.8Z"/></g></g></svg>