<svg xmlns="http://www.w3.org/2000/svg" width="24" height="24" viewBox="0 0 24 24"><path d="M12,2.133a36.8,36.8,0,0,1,4.8.133,6.184,6.184,0,0,1,2.267.4,4.683,4.683,0,0,1,2.267,2.267,6.184,6.184,0,0,1,.4,2.267c0,1.2.133,1.6.133,4.8a36.8,36.8,0,0,1-.133,4.8,6.184,6.184,0,0,1-.4,2.267,4.683,4.683,0,0,1-2.267,2.267,6.184,6.184,0,0,1-2.267.4c-1.2,0-1.6.133-4.8.133a36.8,36.8,0,0,1-4.8-.133,6.184,6.184,0,0,1-2.267-.4,4.683,4.683,0,0,1-2.267-2.267,6.184,6.184,0,0,1-.4-2.267c0-1.2-.133-1.6-.133-4.8a36.8,36.8,0,0,1,.133-4.8,6.184,6.184,0,0,1,.4-2.267A4.789,4.789,0,0,1,3.6,3.6a2.254,2.254,0,0,1,1.333-.933,6.184,6.184,0,0,1,2.267-.4A36.8,36.8,0,0,1,12,2.133M12,0A39.4,39.4,0,0,0,7.067.133,8.232,8.232,0,0,0,4.133.667,5.22,5.22,0,0,0,2,2,5.22,5.22,0,0,0,.667,4.133,6.075,6.075,0,0,0,.133,7.067,39.4,39.4,0,0,0,0,12a39.4,39.4,0,0,0,.133,4.933,8.231,8.231,0,0,0,.533,2.933A5.22,5.22,0,0,0,2,22a5.22,5.22,0,0,0,2.133,1.333,8.231,8.231,0,0,0,2.933.533A39.4,39.4,0,0,0,12,24a39.4,39.4,0,0,0,4.933-.133,8.231,8.231,0,0,0,2.933-.533,5.594,5.594,0,0,0,3.467-3.467,8.231,8.231,0,0,0,.533-2.933C23.867,15.6,24,15.2,24,12a39.4,39.4,0,0,0-.133-4.933,8.232,8.232,0,0,0-.533-2.933A5.22,5.22,0,0,0,22,2,5.22,5.22,0,0,0,19.867.667,8.231,8.231,0,0,0,16.933.133,39.4,39.4,0,0,0,12,0m0,5.867A6.035,6.035,0,0,0,5.867,12,6.133,6.133,0,1,0,12,5.867M12,16a3.929,3.929,0,0,1-4-4,3.929,3.929,0,0,1,4-4,3.929,3.929,0,0,1,4,4,3.929,3.929,0,0,1-4,4M18.4,4.133A1.467,1.467,0,1,0,19.867,5.6,1.48,1.48,0,0,0,18.4,4.133" fill="#4d4f5c" fill-rule="evenodd"/></svg>