<svg xmlns="http://www.w3.org/2000/svg" width="18" height="18.001" viewBox="0 0 18 18.001"><g transform="translate(-120 -156.999)"><rect width="18" height="18" rx="2" transform="translate(120 157)" fill="#666" opacity="0"/><g transform="translate(119.945 157)"><g transform="translate(7.742 0.749)"><line x1="8.437" y1="8.437" transform="translate(0.562 0.562)" fill="#fff"/><path d="M50.055,13.562a.56.56,0,0,1-.4-.165L41.22,4.96a.562.562,0,0,1,.8-.8L50.453,12.6a.562.562,0,0,1-.4.96Z" transform="translate(-41.055 -4)" fill="#4d4f5c"/></g><g transform="translate(0.055 13.499)"><line x2="3.375" y2="3.375" transform="translate(0.562 0.562)" fill="#fff"/><path d="M3.992,76.5a.561.561,0,0,1-.4-.165L.22,72.96a.562.562,0,1,1,.8-.8L4.39,75.54a.562.562,0,0,1-.4.96Z" transform="translate(-0.055 -72)" fill="#4d4f5c"/></g><path d="M14.618,67.558a.562.562,0,0,1-.338-1.012l5.568-4.176a1.1,1.1,0,0,1,1.543.22l.293.39a2.39,2.39,0,0,1-.274,3.194,3.078,3.078,0,0,1-3.251.968A2.848,2.848,0,0,1,17.01,65.9l-2.055,1.541A.559.559,0,0,1,14.618,67.558Zm3.3-2.336a2.574,2.574,0,0,0,.656.877c.606.242,1.209.022,2.082-.761a1.258,1.258,0,0,0,.125-1.682l-.279-.372Z" transform="translate(-11.375 -50.497)" fill="#4d4f5c"/><path d="M4.577,21.787a.563.563,0,0,1-.434-.92c.018-.022,1.836-2.235,3.663-4.892C10.183,12.518,11.5,9.9,11.609,8.4a.563.563,0,0,1,1.122.083c-.3,4.046-7.416,12.733-7.719,13.1A.562.562,0,0,1,4.577,21.787Z" transform="translate(-3.217 -6.401)" fill="#4d4f5c"/><path d="M63.617,47.637a.563.563,0,0,1-.2-1.087L66.7,45.283a.562.562,0,0,1,.4,1.05L63.819,47.6A.56.56,0,0,1,63.617,47.637Z" transform="translate(-51.187 -36.762)" fill="#4d4f5c"/><path d="M63.617,2.624a.563.563,0,0,1-.527-.76l.562-1.5a.563.563,0,0,1,1.053.4l-.562,1.5A.563.563,0,0,1,63.617,2.624Z" transform="translate(-51.187 0)" fill="#4d4f5c"/><path d="M74.617,4.125a.562.562,0,0,1-.4-.96l3-3a.562.562,0,0,1,.8.8l-3,3A.56.56,0,0,1,74.617,4.125Z" transform="translate(-60.125 -0.001)" fill="#4d4f5c"/><path d="M80.617,26.5a.563.563,0,0,1-.11-1.114l1.875-.375a.562.562,0,1,1,.22,1.1l-1.875.375A.561.561,0,0,1,80.617,26.5Z" transform="translate(-65 -20.312)" fill="#4d4f5c"/><path d="M62.352,48.791a1.447,1.447,0,1,1-1.447-1.415A1.431,1.431,0,0,1,62.352,48.791Z" transform="translate(-48.266 -38.494)" fill="#fe7774"/></g></g></svg>