<svg xmlns="http://www.w3.org/2000/svg" width="18" height="18" viewBox="0 0 18 18">
  <g id="Group_6632" data-name="Group 6632" transform="translate(-451 -234)">
    <g id="Group_6579" data-name="Group 6579" transform="translate(331 1)" opacity="0">
      <rect id="Rectangle_2338" data-name="Rectangle 2338" width="18" height="18" rx="2" transform="translate(120 233)" fill="#b74a4a" opacity="0.485"/>
    </g>
    <g id="Group_6631" data-name="Group 6631" transform="translate(450.635 234.004)">
      <g id="Group_6630" data-name="Group 6630" transform="translate(0.366 -0.004)">
        <path id="Path_49401" data-name="Path 49401" d="M5.579,4.252l1.6-3.131H9.306V0H3.37L.588,4.111a1.233,1.233,0,0,0-.21.647c0,.039,0,.077,0,.114a.129.129,0,0,0,0,.024A1.237,1.237,0,0,0,.6,5.521l6.273,8.9a1,1,0,0,0,.818.424h0A1,1,0,0,0,8.628,13.5L5.581,5.377l-.227-.6a.117.117,0,0,1,.005-.094Zm2.031,9.294L1.874,5.377l-.354-.5a.119.119,0,0,1,0-.131l.33-.489L3.967,1.121H5.911L4.356,4.171c-.013.026-.026.052-.037.081a1.254,1.254,0,0,0-.019.919l.081.206Z" transform="translate(-0.375 0.004)" fill="#4d4f5c"/>
        <path id="Path_49402" data-name="Path 49402" d="M56.722,4.111,53.938,0H48V1.121h2.13l1.6,3.131.219.429a.117.117,0,0,1,.005.094l-.226.6L48.68,13.5a1,1,0,0,0,.938,1.353h0a1,1,0,0,0,.819-.425l6.271-8.9a1.235,1.235,0,0,0,.227-.694V4.807A1.243,1.243,0,0,0,56.722,4.111ZM49.7,13.546l3.227-8.169.081-.206a1.254,1.254,0,0,0-.019-.919c-.011-.028-.024-.054-.038-.081L51.4,1.121h1.944l2.117,3.131.332.489a.119.119,0,0,1,0,.131l-.354.5Z" transform="translate(-39.072 0.004)" fill="#4d4f5c"/>
        <path id="Path_49403" data-name="Path 49403" d="M17.666,23.824H.928a.562.562,0,0,1,0-1.125H17.666a.562.562,0,0,1,0,1.125Z" transform="translate(-0.366 -18.442)" fill="#4d4f5c"/>
      </g>
      <path id="Path_49404" data-name="Path 49404" d="M43.179,82.318A1.447,1.447,0,1,1,41.732,80.9,1.43,1.43,0,0,1,43.179,82.318Z" transform="translate(-32.435 -65.738)" fill="#fe7774"/>
    </g>
  </g>
</svg>
