<svg xmlns="http://www.w3.org/2000/svg" width="18" height="18" viewBox="0 0 18 18"><g transform="translate(-415.389 -765)"><g transform="translate(416.396 765.885)"><path d="M476.411,844.028h.013a.572.572,0,0,1-.011,1.143h-.026a.553.553,0,0,1-.546-.559v-.025a.575.575,0,0,1,.571-.559m0-1.125a1.7,1.7,0,0,0-1.7,1.66c0,.012,0,.024,0,.036a1.678,1.678,0,0,0,1.659,1.7h.038a1.7,1.7,0,0,0,.036-3.393Z" transform="translate(-464.598 -829.18)" fill="#fff"/><path d="M441.821,844.028h.013a.572.572,0,0,1-.012,1.143H441.8a.553.553,0,0,1-.546-.559v-.025a.574.574,0,0,1,.571-.559m0-1.125a1.7,1.7,0,0,0-1.7,1.66c0,.012,0,.024,0,.036a1.678,1.678,0,0,0,1.659,1.7h.038a1.7,1.7,0,0,0,.036-3.393Z" transform="translate(-436.494 -829.18)" fill="#fff"/><path d="M433.752,783.564h-8.766a1.847,1.847,0,1,1,0-3.693h8.288a.724.724,0,0,0,.656-.422c.007-.015.014-.029.022-.043l2.671-4.738-9.125.006a.561.561,0,0,1-.365-.135l-1.041-.888-1.034,1.793a.562.562,0,0,1-.955.031l-3.251-4.884a.562.562,0,1,1,.936-.623l2.749,4.13.919-1.593a.562.562,0,0,1,.852-.147l1.4,1.192h8.924a1.121,1.121,0,0,1,1.02,1.586c-.007.015-.014.029-.022.043l-2.684,4.761A1.851,1.851,0,0,1,433.274,781h-8.288a.722.722,0,0,0,0,1.443h8.766a.563.563,0,0,1,0,1.125Z" transform="translate(-420.757 -769.717)" fill="#fff"/><path d="M437.676,817.955a.562.562,0,0,1-.562-.56l-.008-1.828a.562.562,0,0,1,.56-.565h0a.563.563,0,0,1,.563.56l.008,1.828a.563.563,0,0,1-.56.565Z" transform="translate(-434.04 -806.511)" fill="#fff"/></g><path d="M416.806,767.894a1.447,1.447,0,1,0-1.416-1.478c0,.01,0,.02,0,.031a1.431,1.431,0,0,0,1.415,1.447Z" transform="translate(0 0)" fill="#fe7774"/></g></svg>