<svg xmlns="http://www.w3.org/2000/svg" width="18" height="18.002" viewBox="0 0 18 18.002"><g transform="translate(-120 -233)"><rect width="18" height="18" rx="2" transform="translate(120 233)" fill="#e0e0e0" opacity="0"/><g transform="translate(120 233.002)"><path d="M20.091,22.373h-7.3a1.159,1.159,0,0,1-.887-.413L10.344,20.1a1.155,1.155,0,0,0-.887-.414h-4.3A1.157,1.157,0,0,0,4,20.847v5.515a.562.562,0,0,0,.563.563h0a.562.562,0,0,0,.563-.563V21.477a.662.662,0,0,1,.662-.662H8.895a1.155,1.155,0,0,1,.887.414l1.556,1.856a1.159,1.159,0,0,0,.887.413h7.249a.649.649,0,0,1,.649.649V32.18a.694.694,0,0,1-.694.694H5.694a.573.573,0,0,1-.572-.572v-.4a.562.562,0,0,0-.563-.563h0A.562.562,0,0,0,4,31.9v.943A1.157,1.157,0,0,0,5.154,34H20.091a1.157,1.157,0,0,0,1.157-1.157V23.53A1.157,1.157,0,0,0,20.091,22.373Z" transform="translate(-3.248 -15.999)" fill="#4d4f5c"/><path d="M22.216,2.682H16.037a1.165,1.165,0,0,1-.887-.413L13.594.413A1.155,1.155,0,0,0,12.707,0H9.154A1.158,1.158,0,0,0,8,1.156V2.282a.5.5,0,0,0,.5.5h.133a.5.5,0,0,0,.5-.5V1.5A.381.381,0,0,1,9.5,1.124h2.642a1.155,1.155,0,0,1,.887.414l1.556,1.856a1.165,1.165,0,0,0,.887.413h6.718a.43.43,0,0,1,.43.43v.476a.562.562,0,0,0,.563.563h0a.562.562,0,0,0,.563-.563v-.5A1.531,1.531,0,0,0,22.216,2.682Z" transform="translate(-6.498)" fill="#4d4f5c"/><path d="M2.893,54.867a1.431,1.431,0,0,1-1.446,1.415,1.416,1.416,0,1,1,0-2.831A1.431,1.431,0,0,1,2.893,54.867Z" transform="translate(0 -43.429)" fill="#fe7774"/></g></g></svg>