<svg xmlns="http://www.w3.org/2000/svg" width="18" height="18" viewBox="0 0 18 18"><g transform="translate(-360 -157)"><rect width="18" height="18" rx="2" transform="translate(360 157)" fill="#666" opacity="0"/><g transform="translate(360 157)"><path d="M15.211,65.125,16.8,68.03a.582.582,0,0,1,0,.562.52.52,0,0,1-.424.281l-.062,0H1.684l-.063,0a.519.519,0,0,1-.423-.281.582.582,0,0,1,0-.562l1.593-2.905H15.211M15.877,64H2.123L.21,67.489a1.692,1.692,0,0,0,1.322,2.5q.075.006.152.006H16.316q.077,0,.152-.006a1.692,1.692,0,0,0,1.322-2.5L15.877,64Z" transform="translate(0 -52)" fill="#4d4f5c"/><path d="M23.33,4.895H21.114a.563.563,0,0,0-.562.563h0a.562.562,0,0,0,.563.563H23.33a.527.527,0,0,1,.525.525v9.427H12.3V6.545a.527.527,0,0,1,.525-.525h2.218a.562.562,0,0,0,.563-.562h0a.563.563,0,0,0-.562-.562H12.821a1.65,1.65,0,0,0-1.65,1.65V17.1H24.98V6.545A1.65,1.65,0,0,0,23.33,4.895Z" transform="translate(-9.076 -3.977)" fill="#4d4f5c"/><path d="M43.282,1.415A1.415,1.415,0,1,1,41.866,0,1.415,1.415,0,0,1,43.282,1.415Z" transform="translate(-32.866)" fill="#fe7774"/><path d="M37.466,88.381h-4.8a.563.563,0,0,1,0-1.125h4.8a.563.563,0,0,1,0,1.125Z" transform="translate(-26.084 -70.896)" fill="#4d4f5c"/></g></g></svg>