<svg xmlns="http://www.w3.org/2000/svg" width="48" height="48" viewBox="0 0 48 48">
  <g id="Group_6591" data-name="Group 6591" transform="translate(0)">
    <path id="Path_49297" data-name="Path 49297" d="M12.584,48h-.059a2.326,2.326,0,0,1-1.617-.7L.583,36.491A2,2,0,0,1,.2,34.208a2.239,2.239,0,0,1,2.059-1.259H7.2V6.937a1.063,1.063,0,0,1,2.122,0V34.946H2.259a.12.12,0,0,0-.121.075.107.107,0,0,0,.022.134L12.486,45.961a.133.133,0,0,0,.1.042.159.159,0,0,0,.1-.037L23.585,35.7a.107.107,0,0,0,.029-.137.119.119,0,0,0-.123-.077H18.374a2.511,2.511,0,0,1-2.58-2.428V28.445a2.511,2.511,0,0,1,2.58-2.428H28.959a2.734,2.734,0,0,1,2.81,2.645V41.944a.129.129,0,0,0,.133.125h6.543a.13.13,0,0,0,.133-.125V17.177a3.037,3.037,0,0,1,3.12-2.938h4.04a.12.12,0,0,0,.122-.075.108.108,0,0,0-.025-.135l-11.4-11.99A.137.137,0,0,0,34.341,2a.116.116,0,0,0-.071.018L23.689,14.052a.092.092,0,0,0-.032.116.122.122,0,0,0,.126.07h5.175a2.779,2.779,0,0,1,2.81,2.992V20.26c0,1.3-1.664,2.122-2.81,2.122H18.374c-1.218,0-2.58-.908-2.58-2.122V6.833a1.063,1.063,0,0,1,2.121,0V20.188a.812.812,0,0,0,.458.2H28.959a1.437,1.437,0,0,0,.688-.26V17.231c0-.454-.119-.994-.688-.994H23.783a2.254,2.254,0,0,1-2.086-1.3,2.007,2.007,0,0,1,.441-2.244L32.744.622a2.355,2.355,0,0,1,3.241.052l11.4,11.99a2,2,0,0,1,.42,2.294,2.234,2.234,0,0,1-2.068,1.277H41.7a.972.972,0,0,0-1,.94V41.944a2.194,2.194,0,0,1-2.255,2.122H31.9a2.194,2.194,0,0,1-2.255-2.122V28.661a.669.669,0,0,0-.688-.647H18.374a.446.446,0,0,0-.458.431v4.612a.446.446,0,0,0,.458.431h5.117a2.253,2.253,0,0,1,2.083,1.31,2.025,2.025,0,0,1-.489,2.313L14.179,47.378A2.339,2.339,0,0,1,12.584,48Z" transform="translate(0 0)" fill="#fff"/>
    <path id="Path_49298" data-name="Path 49298" d="M16.869,3.774a3.858,3.858,0,0,1-7.714,0,3.858,3.858,0,0,1,7.714,0Z" transform="translate(-4.578)" fill="#fe7774"/>
  </g>
</svg>
